<svg xmlns="http://www.w3.org/2000/svg" id="Camada_2" data-name="Camada 2" viewBox="0 0 363.02 80.66"><defs><style>      .cls-1 {        fill: #04ccdd;      }      .cls-2 {        fill: #00090d;      }    </style></defs><g id="Camada_1-2" data-name="Camada 1"><path class="cls-2" d="m181.51,0H0c36.17,0,71.31,6.47,97.65,33.98,21.67,22.63,46.25,44.28,79.03,46.54,1.65.11,3.24.13,4.84.15,1.59-.02,3.19-.03,4.84-.15,32.77-2.27,57.36-23.91,79.03-46.54C291.71,6.47,326.85,0,363.02,0h-181.51Z"></path><path class="cls-1" d="m202.78,11.67c-1.48-1.48-3.87-1.48-5.35,0l-15.92,15.92-15.92-15.92c-1.48-1.48-3.87-1.48-5.35,0s-1.48,3.87,0,5.35l18.42,18.42c.74.74,1.71,1.11,2.68,1.11.06,0,.12-.03.18-.03.06,0,.12.03.18.03.97,0,1.94-.37,2.68-1.11l18.42-18.42c1.48-1.48,1.48-3.87,0-5.35Z"></path></g></svg>